# xmcd CD database file generated by OrangeCD 5.0
#
# Track frame offsets:
#     150
#     20387
#     40982
#     63870
#
# Disc length: 1154 seconds
#
# Revision: 0
# Processed by: cddbd v1.5.1PL2 Copyright (c) Steve Scherf et al.
# Submitted via: OrangeCD 5.0
#
DISCID=29048004
DTITLE=Delphians - Delphians
DYEAR=2006
DGENRE=Indie
TTITLE0=Paint by Numbers
TTITLE1=Silence Song
TTITLE2=Nowhere Rose
TTITLE3=Branches
EXTD=www.myspace.com/delphians
EXTT0=
EXTT1=
EXTT2=
EXTT3=
PLAYORDER=
